Coordinates
version=1
nRows=6
nColumns=107
inDegrees=yes

Units are S.I. units (second, meters, Newtons, ...)
If the header above contains a line with 'inDegrees', this indicates whether rotational values are in degrees (yes) or radians (no).

endheader
time	sternoclavicular_r2	sternoclavicular_r3	unrotscap_r3	unrotscap_r2	acromioclavicular_r2	acromioclavicular_r3	acromioclavicular_r1	unrothum_r1	unrothum_r3	unrothum_r2	elv_angle	shoulder_elv	shoulder1_r2	shoulder_rot	elbow_flexion	pro_sup	deviation	flexion	proximal_distal_r1	proximal_distal_r3	cmc_flexion	cmc_abduction	mp_flexion	ip_flexion	mcp2_flexion	mcp2_abduction	pm2_flexion	md2_flexion	mcp3_flexion	mcp3_abduction	pm3_flexion	md3_flexion	mcp4_flexion	mcp4_abduction	pm4_flexion	md4_flexion	mcp5_flexion	mcp5_abduction	pm5_flexion	md5_flexion	bicpt_tx	bicpt_ty	bicpt_tz	bicpt2_tx	bicpt2_ty	bicpt2_tz	ptpt_tx	ptpt_ty	ptpt_tz	FCUpt_tx	FCUpt_ty	FCUpt_tz	EDCpt_tx	EDCpt_ty	EDCpt_tz	APLpt_tx	APLpt_ty	APLpt_tz	FPLpt_tx	FPLpt_ty	FPLpt_tz	FPLpt2_tx	FPLpt2_ty	FPLpt2_tz	PEC1pt2_tx	PEC1pt2_ty	PEC1pt2_tz	PEC1pt3_tx	PEC1pt3_ty	PEC1pt3_tz	PEC2pt2_tx	PEC2pt2_ty	PEC2pt2_tz	PEC2pt3_tx	PEC2pt3_ty	PEC2pt3_tz	PEC3pt2_tx	PEC3pt2_ty	PEC3pt2_tz	PEC3pt3_tx	PEC3pt3_ty	PEC3pt3_tz	DELT2pt2a_tx	DELT2pt2a_ty	DELT2pt2a_tz	DELT2pt2_tx	DELT2pt2_ty	DELT2pt2_tz	LAT1pt2_tx	LAT1pt2_ty	LAT1pt2_tz	LAT1pt3_tx	LAT1pt3_ty	LAT1pt3_tz	LAT2pt2_tx	LAT2pt2_ty	LAT2pt2_tz	LAT2pt3_tx	LAT2pt3_ty	LAT2pt3_tz	LAT3pt2_tx	LAT3pt2_ty	LAT3pt2_tz	LAT3pt3_tx	LAT3pt3_ty	LAT3pt3_tz
      1.20000000	     -0.32241252	      0.13655872	     -0.13655872	      0.32241252	     -0.06528198	      0.52758597	      0.23714626	     -0.23714626	     -0.52758597	      0.06528198	     98.84477878	     76.33402907	     -1.72516684	    -23.42428071	     30.91461640	     56.99364989	      0.16389125	     -0.44381936	      0.20043887	     -0.22190968	     33.08624294	     -8.82315885	    -15.21367986	      0.67601692	     -0.39805524	     11.84383852	     29.74443816	     28.93119131	     -0.81345090	     -0.00647323	     22.14541855	     19.88029703	     -3.30883873	     -1.75432815	     15.19874210	     20.99791313	     -8.85193621	    -13.78622503	      4.04084204	      5.20600318	      0.00092256	     -0.03114329	     -0.00487073	      0.01627586	     -0.01859811	     -0.00545350	      0.00333881	     -0.06762302	     -0.00464114	      0.00953570	     -0.18310056	     -0.00039833	     -0.00683922	      0.00211609	     -0.00005382	      0.00028913	      0.00011565	      0.00057826	      0.00037009	      0.00111027	      0.00062452	     -0.00001179	     -0.00021900	     -0.00026280	      0.00250206	      0.00877842	      0.00610673	     -0.00818471	      0.01976205	     -0.01874426	      0.00250206	      0.00877842	      0.00610673	      0.00055130	      0.01832018	     -0.00962658	      0.00395426	      0.00488157	      0.01598307	      0.00000000	      0.00779290	      0.00000000	     -0.00716692	     -0.03312052	     -0.00642568	      0.01567386	     -0.00053936	     -0.00457705	     -0.00089056	      0.01492756	     -0.00610673	      0.00245965	      0.02154318	     -0.01781129	     -0.00597950	      0.01293439	     -0.00547061	     -0.01246790	      0.02731064	     -0.03057605	     -0.02340912	      0.01446107	     -0.00733655	     -0.01552127	      0.03155143	     -0.03820945
      1.23333333	     -0.33007144	      0.13980268	     -0.13980268	      0.33007144	     -0.06683275	      0.54011879	      0.24277968	     -0.24277968	     -0.54011879	      0.06683275	     97.65351482	     78.14734702	     -1.70437536	    -15.51206903	     29.88555233	     46.45724186	      0.12316040	     -0.51871217	      0.15473061	     -0.25935609	     32.13428758	     -7.42314841	    -14.10093158	      2.03271382	     -6.15282015	     11.43119426	     31.72994102	     15.72350229	     -8.48296067	     -1.15836907	     20.12103704	     18.84629223	    -10.89180077	     -1.93133844	     11.51375518	     22.55026227	    -18.65396983	    -13.68904733	      4.87041275	      5.17132290	      0.00088852	     -0.03102534	     -0.00485173	      0.01653879	     -0.01831856	     -0.00675149	      0.00411733	     -0.06711962	     -0.00379238	      0.00843678	     -0.18335482	     -0.00041656	     -0.00557486	      0.00164935	      0.00008877	      0.00030539	      0.00012216	      0.00061078	      0.00039090	      0.00117269	      0.00065964	     -0.00001100	     -0.00022969	     -0.00027562	      0.00256150	      0.00898695	      0.00625179	     -0.00837914	      0.02023150	     -0.01918953	      0.00256150	      0.00898695	      0.00625179	      0.00056440	      0.01875538	     -0.00985526	      0.00402219	      0.00499753	      0.01614626	      0.00000000	      0.00817034	      0.00000000	     -0.00733717	     -0.03390729	     -0.00673892	      0.01105186	     -0.00029827	     -0.00190471	     -0.00091172	      0.01528216	     -0.00625179	      0.00251808	      0.02205494	     -0.01823440	     -0.00612155	      0.01324164	     -0.00560056	     -0.01276408	      0.02795941	     -0.03130238	     -0.02396521	      0.01480459	     -0.00751083	     -0.01588997	      0.03230093	     -0.03911712
      1.26666667	     -0.33128496	      0.14031667	     -0.14031667	      0.33128496	     -0.06707846	      0.54210456	      0.24367227	     -0.24367227	     -0.54210456	      0.06707846	     97.58063921	     78.43465834	     -1.70310344	    -14.40839965	     29.63611529	     45.48619244	      0.09715263	     -0.52294641	      0.12412471	     -0.26147321	     33.64485027	     -8.00011747	    -13.80219370	      2.14828461	    -10.44217477	     11.37703238	     28.32106493	     14.43614033	    -13.42149490	     -1.59306474	     16.99927330	     17.80680488	    -14.97711063	     -1.64134252	      7.75943823	     21.25480105	    -22.22960066	    -13.58865197	      2.20445961	      5.10946949	      0.00088027	     -0.03099675	     -0.00484713	      0.01655023	     -0.01825080	     -0.00686327	      0.00418908	     -0.06707322	     -0.00371416	      0.00833722	     -0.18337667	     -0.00041403	     -0.00545833	      0.00160806	      0.00009888	      0.00030603	      0.00012241	      0.00061205	      0.00039171	      0.00117514	      0.00066102	     -0.00001215	     -0.00021225	     -0.00025470	      0.00257092	      0.00901999	      0.00627478	     -0.00840995	      0.02030588	     -0.01926008	      0.00257092	      0.00901999	      0.00627478	      0.00056647	      0.01882433	     -0.00989149	      0.00403284	      0.00501590	      0.01617141	      0.00000000	      0.00823098	      0.00000000	     -0.00736415	     -0.03403196	     -0.00678924	      0.01034051	     -0.00026674	     -0.00161467	     -0.00091507	      0.01533835	     -0.00627478	      0.00252734	      0.02213602	     -0.01830144	     -0.00614405	      0.01329033	     -0.00562116	     -0.01281101	      0.02806220	     -0.03141746	     -0.02405332	      0.01485902	     -0.00753845	     -0.01594839	      0.03241969	     -0.03926094
      1.30000000	     -0.33262814	      0.14088558	     -0.14088558	      0.33262814	     -0.06735043	      0.54430250	      0.24466023	     -0.24466023	     -0.54430250	      0.06735043	     97.44316955	     78.75266858	     -1.70070414	    -13.19537771	     29.48930210	     43.73350598	      0.07229974	     -0.52932354	      0.09384314	     -0.26466177	     33.87250562	     -8.03473977	    -12.98183000	      2.59387940	    -13.46798857	     11.33517933	     25.86289762	     12.97921887	    -17.52361497	     -1.85136891	     14.89881960	     16.87039414	    -18.12227726	     -1.29989869	      4.05652982	     20.33373329	    -25.05434371	    -13.47832680	     -0.11506286	      5.12370362	      0.00087541	     -0.03097992	     -0.00484442	      0.01656545	     -0.01821091	     -0.00706171	      0.00431859	     -0.06698948	     -0.00357297	      0.00815827	     -0.18341542	     -0.00040768	     -0.00524801	      0.00153427	      0.00011584	      0.00030693	      0.00012277	      0.00061386	      0.00039287	      0.00117862	      0.00066297	     -0.00001228	     -0.00020940	     -0.00025128	      0.00258134	      0.00905656	      0.00630022	     -0.00844404	      0.02038821	     -0.01933817	      0.00258134	      0.00905656	      0.00630022	      0.00056877	      0.01890066	     -0.00993159	      0.00404459	      0.00503624	      0.01619902	      0.00000000	      0.00829838	      0.00000000	     -0.00739401	     -0.03416994	     -0.00684515	      0.00953996	     -0.00023274	     -0.00132086	     -0.00091878	      0.01540053	     -0.00630022	      0.00253759	      0.02222577	     -0.01837564	     -0.00616896	      0.01334421	     -0.00564395	     -0.01286295	      0.02817598	     -0.03154485	     -0.02415084	      0.01491927	     -0.00756901	     -0.01601306	      0.03255113	     -0.03942012
      1.33333333	     -0.33293701	      0.14101640	     -0.14101640	      0.33293701	     -0.06741297	      0.54480793	      0.24488741	     -0.24488741	     -0.54480793	      0.06741297	     97.47715081	     78.82579688	     -1.70129723	    -12.83712222	     29.31509434	     43.46272203	      0.06808582	     -0.53845067	      0.08860815	     -0.26922533	     34.65993119	     -7.84110206	    -12.49208463	      2.76800209	    -14.74753184	     11.77816664	     24.86613409	     12.52749975	    -19.07668834	     -1.48603554	     13.86818674	     16.47128219	    -19.09199924	     -0.73941935	      3.18925180	     20.06071059	    -24.71402124	    -13.51951512	     -0.33635208	      5.02760423	      0.00086965	     -0.03095996	     -0.00484120	      0.01656717	     -0.01816359	     -0.00709198	      0.00433860	     -0.06697655	     -0.00355116	      0.00813071	     -0.18342133	     -0.00040649	     -0.00521551	      0.00152295	      0.00011832	      0.00030811	      0.00012324	      0.00061622	      0.00039438	      0.00118314	      0.00066551	     -0.00001262	     -0.00019910	     -0.00023893	      0.00258374	      0.00906497	      0.00630607	     -0.00845188	      0.02040714	     -0.01935613	      0.00258374	      0.00906497	      0.00630607	      0.00056930	      0.01891821	     -0.00994082	      0.00404729	      0.00504092	      0.01620534	      0.00000000	      0.00831391	      0.00000000	     -0.00740087	     -0.03420167	     -0.00685803	      0.00929986	     -0.00022283	     -0.00123907	     -0.00091964	      0.01541484	     -0.00630607	      0.00253994	      0.02224641	     -0.01839270	     -0.00617469	      0.01335660	     -0.00564919	     -0.01287489	      0.02820214	     -0.03157414	     -0.02417326	      0.01493312	     -0.00757604	     -0.01602793	      0.03258136	     -0.03945672
      1.36666667	     -0.33271407	      0.14092198	     -0.14092198	      0.33271407	     -0.06736783	      0.54444311	      0.24472343	     -0.24472343	     -0.54444311	      0.06736783	     97.49480762	     78.77301317	     -1.70160540	    -12.96745654	     29.37718068	     43.25457067	      0.06782201	     -0.53869993	      0.08827903	     -0.26934997	     34.63974023	     -7.91192037	    -12.49866253	      2.76846868	    -14.89071171	     11.76905492	     24.78115530	     12.48637459	    -19.21753014	     -1.45606524	     13.78228758	     16.43598126	    -19.12452210	     -0.71153859	      3.13825885	     20.04473568	    -24.56049463	    -13.54072116	     -0.30661591	      5.03820038	      0.00087171	     -0.03096707	     -0.00484235	      0.01656837	     -0.01818046	     -0.00711517	      0.00435398	     -0.06696660	     -0.00353439	      0.00810954	     -0.18342586	     -0.00040553	     -0.00519054	      0.00151427	      0.00012019	      0.00030814	      0.00012326	      0.00061628	      0.00039442	      0.00118325	      0.00066558	     -0.00001262	     -0.00019938	     -0.00023925	      0.00258201	      0.00905890	      0.00630185	     -0.00844622	      0.02039348	     -0.01934317	      0.00258201	      0.00905890	      0.00630185	      0.00056892	      0.01890554	     -0.00993416	      0.00404535	      0.00503754	      0.01620078	      0.00000000	      0.00830270	      0.00000000	     -0.00739592	     -0.03417876	     -0.00684873	      0.00938735	     -0.00022643	     -0.00126863	     -0.00091902	      0.01540451	     -0.00630185	      0.00253824	      0.02223151	     -0.01838039	     -0.00617056	      0.01334766	     -0.00564540	     -0.01286627	      0.02818326	     -0.03155299	     -0.02415708	      0.01492312	     -0.00757097	     -0.01601719	      0.03255954	     -0.03943030
